HIERARCHY
ROOT hip
{
  OFFSET 0 0 0
  CHANNELS 6 Xposition Yposition Zposition Zrotation Yrotation Xrotation
  JOINT abdomen
  {
    OFFSET 0 20.6881 -0.73152
    CHANNELS 3 Zrotation Xrotation Yrotation
    JOINT chest
    {
      OFFSET 0 11.7043 -0.48768
      CHANNELS 3 Zrotation Xrotation Yrotation
      JOINT neck
      {
        OFFSET 0 22.1894 -2.19456
        CHANNELS 3 Zrotation Xrotation Yrotation
        JOINT head
        {
          OFFSET -0.24384 7.07133 1.2192
          CHANNELS 3 Zrotation Xrotation Yrotation
          JOINT leftEye
          {
            OFFSET 4.14528 8.04674 8.04672
            CHANNELS 3 Zrotation Xrotation Yrotation
            End Site
            {
              OFFSET 1 0 0
            }
          }
          JOINT rightEye
          {
            OFFSET -3.6576 8.04674 8.04672
            CHANNELS 3 Zrotation Xrotation Yrotation
            End Site
            {
              OFFSET 1 0 0
            }
          }
        }
      }
      JOINT rCollar
      {
        OFFSET -2.68224 19.2634 -4.8768
        CHANNELS 3 Zrotation Xrotation Yrotation
        JOINT rShldr
        {
          OFFSET -8.77824 -1.95073 1.46304
          CHANNELS 3 Zrotation Xrotation Yrotation
          JOINT rForeArm
          {
            OFFSET -28.1742 -1.7115 0.48768
            CHANNELS 3 Zrotation Xrotation Yrotation
            JOINT rHand
            {
              OFFSET -22.5879 0.773209 7.07136
              CHANNELS 3 Zrotation Xrotation Yrotation
              JOINT rThumb1
              {
                OFFSET -1.2192 -0.487915 3.41376
                CHANNELS 3 Zrotation Xrotation Yrotation
                JOINT rThumb2
                {
                  OFFSET -3.37035 -0.52449 3.41376
                  CHANNELS 3 Zrotation Xrotation Yrotation
                  End Site
                  {
                    OFFSET -1.78271 -1.18214 1.43049
                  }
                }
              }
              JOINT rIndex1
              {
                OFFSET -7.75947 0.938293 5.60832
                CHANNELS 3 Zrotation Xrotation Yrotation
                JOINT rIndex2
                {
                  OFFSET -2.54057 -0.884171 1.56538
                  CHANNELS 3 Zrotation Xrotation Yrotation
                  End Site
                  {
                    OFFSET -1.62519 -0.234802 1.16502
                  }
                }
              }
              JOINT rMid1
              {
                OFFSET -8.24714 1.18213 3.41376
                CHANNELS 3 Zrotation Xrotation Yrotation
                JOINT rMid2
                {
                  OFFSET -3.10165 -0.590103 1.0647
                  CHANNELS 3 Zrotation Xrotation Yrotation
                  End Site
                  {
                    OFFSET -2.48547 -0.328903 0.83742
                  }
                }
              }
              JOINT rRing1
              {
                OFFSET -8.82822 0.546677 1.51678
                CHANNELS 3 Zrotation Xrotation Yrotation
                JOINT rRing2
                {
                  OFFSET -2.60934 -0.819778 -0.0198488
                  CHANNELS 3 Zrotation Xrotation Yrotation
                  End Site
                  {
                    OFFSET -2.33842 -0.294052 0.168128
                  }
                }
              }
              JOINT rPinky1
              {
                OFFSET -8.27202 -0.0477905 -0.4584
                CHANNELS 3 Zrotation Xrotation Yrotation
                JOINT rPinky2
                {
                  OFFSET -1.82734 -0.647385 -0.700984
                  CHANNELS 3 Zrotation Xrotation Yrotation
                  End Site
                  {
                    OFFSET -1.69225 -0.51767 -0.607171
                  }
                }
              }
            }
          }
        }
      }
      JOINT lCollar
      {
        OFFSET 2.68224 19.2634 -4.8768
        CHANNELS 3 Zrotation Xrotation Yrotation
        JOINT lShldr
        {
          OFFSET 8.77824 -1.95073 1.46304
          CHANNELS 3 Zrotation Xrotation Yrotation
          JOINT lForeArm
          {
            OFFSET 28.1742 -1.7115 0.48768
            CHANNELS 3 Zrotation Xrotation Yrotation
            JOINT lHand
            {
              OFFSET 22.5879 0.773209 7.07136
              CHANNELS 3 Zrotation Xrotation Yrotation
              JOINT lThumb1
              {
                OFFSET 1.2192 -0.487915 3.41376
                CHANNELS 3 Zrotation Xrotation Yrotation
                JOINT lThumb2
                {
                  OFFSET 3.37035 -0.52449 3.41376
                  CHANNELS 3 Zrotation Xrotation Yrotation
                  End Site
                  {
                    OFFSET 1.78271 -1.18214 1.43049
                  }
                }
              }
              JOINT lIndex1
              {
                OFFSET 7.75947 0.938293 5.60832
                CHANNELS 3 Zrotation Xrotation Yrotation
                JOINT lIndex2
                {
                  OFFSET 2.54057 -0.884171 1.56538
                  CHANNELS 3 Zrotation Xrotation Yrotation
                  End Site
                  {
                    OFFSET 1.62519 -0.234802 1.16502
                  }
                }
              }
              JOINT lMid1
              {
                OFFSET 8.24714 1.18213 3.41376
                CHANNELS 3 Zrotation Xrotation Yrotation
                JOINT lMid2
                {
                  OFFSET 3.10165 -0.590103 1.0647
                  CHANNELS 3 Zrotation Xrotation Yrotation
                  End Site
                  {
                    OFFSET 2.48547 -0.328903 0.83742
                  }
                }
              }
              JOINT lRing1
              {
                OFFSET 8.82822 0.546677 1.51678
                CHANNELS 3 Zrotation Xrotation Yrotation
                JOINT lRing2
                {
                  OFFSET 2.60934 -0.819778 -0.0198488
                  CHANNELS 3 Zrotation Xrotation Yrotation
                  End Site
                  {
                    OFFSET 2.33842 -0.294052 0.168128
                  }
                }
              }
              JOINT lPinky1
              {
                OFFSET 8.27202 -0.0477905 -0.4584
                CHANNELS 3 Zrotation Xrotation Yrotation
                JOINT lPinky2
                {
                  OFFSET 1.82734 -0.647385 -0.700984
                  CHANNELS 3 Zrotation Xrotation Yrotation
                  End Site
                  {
                    OFFSET 1.69225 -0.51767 -0.607171
                  }
                }
              }
            }
          }
        }
      }
    }
  }
  JOINT rButtock
  {
    OFFSET -8.77824 4.35084 1.2192
    CHANNELS 3 Zrotation Xrotation Yrotation
    JOINT rThigh
    {
      OFFSET 0 -1.70687 -2.19456
      CHANNELS 3 Zrotation Xrotation Yrotation
      JOINT rShin
      {
        OFFSET 0 -36.8199 0.73152
        CHANNELS 3 Zrotation Xrotation Yrotation
        JOINT rFoot
        {
          OFFSET 0.73152 -45.1104 -5.12064
          CHANNELS 3 Zrotation Xrotation Yrotation
          End Site
          {
            OFFSET -1.1221 -3.69964 12.103
          }
        }
      }
    }
  }
  JOINT lButtock
  {
    OFFSET 8.77824 4.35084 1.2192
    CHANNELS 3 Zrotation Xrotation Yrotation
    JOINT lThigh
    {
      OFFSET 0 -1.70687 -2.19456
      CHANNELS 3 Zrotation Xrotation Yrotation
      JOINT lShin
      {
        OFFSET 0 -36.8199 0.73152
        CHANNELS 3 Zrotation Xrotation Yrotation
        JOINT lFoot
        {
          OFFSET -0.73152 -45.1104 -5.12064
          CHANNELS 3 Zrotation Xrotation Yrotation
          End Site
          {
            OFFSET 1.1221 -3.69964 12.103
          }
        }
      }
    }
  }
}
MOTION
Frames:	8
Frame Time:	0.00833333
-81.6557 85.3573 175.477 0.0 0.0 0.0 1.31603 -0.00470369 0.0362371 0.363457 -0.00359441 0.0629615 -2.83773e-14 0.0 1.98785e-16 -8.49401e-14 3.18055e-15 5.96354e-16 -0.0 0.0 0.0 -0.0 0.0 0.0 -1.40657e-14 1.45594e-17 1.98785e-16 -2.96305e-13 -4.34841e-17 1.78906e-15 -5.13913e-12 1.54317e-12 8.5875e-14 -5.87671e-11 -1.48671e-12 2.70347e-13 -1.38633e-10 1.24818e-13 7.95139e-13 -2.39425e-10 2.16278e-13 1.37639e-12 -1.38628e-10 1.25632e-13 7.88778e-13 7.73091 5.47488 0.417314 -1.38634e-10 1.24141e-13 8.0468e-13 2.90554 0.965183 0.102902 -1.38622e-10 1.25135e-13 7.95934e-13 10.2786 0.731801 0.0259123 -1.38642e-10 1.2762e-13 8.015e-13 2.22167 -0.733487 -0.20892 -1.40632e-14 1.53359e-17 0.0 -2.99822e-13 3.54085e-16 1.98785e-16 -5.13058e-12 -1.52468e-12 7.63333e-14 -5.87661e-11 1.59927e-12 2.98972e-13 -1.38612e-10 1.61642e-13 8.07861e-13 -2.39376e-10 2.73528e-13 1.39547e-12 -1.38614e-10 1.63799e-13 8.14222e-13 -7.73091 5.47488 -0.417314 -1.38612e-10 1.62009e-13 8.07861e-13 -2.90554 0.965183 -0.102902 -1.38621e-10 1.62009e-13 8.06271e-13 -10.2786 0.731801 -0.0259123 -1.38609e-10 1.62208e-13 7.91958e-13 -2.22167 -0.733487 0.20892 -2.03217e-16 0.0 -3.88251e-19 1.46255 -6.13858 -0.134757 0.00180431 5.56141 0.054172 -0.478266 0.575057 0.0659822 2.03217e-16 0.0 3.88251e-19 0.545034 -1.92085 0.00799966 0.00890791 -2.07861 0.0733622 0.452508 3.99724 -0.131491
-80.8548 83.3875 164.378 177.631 -2.898 -169.137 -0.215285 -2.09172 3.38417 0.542773 1.504 1.00103 -0.900992 -3.87762 -1.02345 1.58337 10.4582 -3.81746 -0.0 0.0 0.0 -0.0 0.0 0.0 -1.5927e-14 4.36936e-14 -5.34855e-14 19.8364 13.2954 -1.52971 -22.3319 -20.1991 14.9944 0.00851812 2.04755 0.2871 -1.77614e-10 -1.13487e-09 3.67601e-10 -3.03912e-10 -1.95849e-09 6.35944e-10 -1.7761e-10 -1.13487e-09 3.67591e-10 7.73091 5.47488 0.417314 -1.77615e-10 -1.13487e-09 3.67608e-10 2.90554 0.965183 0.102902 -1.77606e-10 -1.13487e-09 3.67601e-10 10.2786 0.731801 0.0259123 -1.77623e-10 -1.13487e-09 3.67609e-10 2.22167 -0.733487 -0.20892 -1.59348e-14 4.3694e-14 -5.36878e-14 -18.6388 16.2132 8.69291 23.1739 -21.0462 -14.8542 -0.0362392 4.2252 -0.587997 -5.82719e-10 -5.11663e-11 4.72034e-10 -1.00115e-09 -6.51162e-11 8.21976e-10 -5.82721e-10 -5.11632e-11 4.72041e-10 -7.73091 5.47488 -0.417314 -5.82718e-10 -5.11658e-11 4.72034e-10 -2.90554 0.965183 -0.102902 -5.82725e-10 -5.11662e-11 4.72032e-10 -10.2786 0.731801 -0.0259123 -5.82714e-10 -5.11663e-11 4.72019e-10 -2.22167 -0.733487 0.20892 -2.03217e-16 0.0 -3.88251e-19 3.11936 -3.19641 0.613762 -0.00658555 12.6764 0.150427 -0.0814917 9.15955 -4.02309 2.03217e-16 0.0 3.88251e-19 1.08669 -13.3563 -2.22569 0.0137249 5.56433 -0.0257739 0.333712 8.48382 1.73739
-80.8807 83.5906 162.208 177.548 -2.8988 -168.958 -1.57217 -4.30408 6.9762 0.676018 3.09223 2.00631 -1.99811 -7.94219 -2.13363 4.87798 21.3358 -8.33012 -0.0 0.0 0.0 -0.0 0.0 0.0 -1.77992e-14 9.26402e-14 -1.14848e-13 41.6726 27.3023 -3.43179 -32.6627 -36.6346 37.0255 -0.00483991 4.21001 0.591559 -2.40016e-10 -2.48076e-09 7.97192e-10 -4.0842e-10 -4.28156e-09 1.37919e-09 -2.40013e-10 -2.48077e-09 7.97177e-10 7.73091 5.47488 0.417314 -2.40017e-10 -2.48077e-09 7.97196e-10 2.90554 0.965183 0.102902 -2.4001e-10 -2.48076e-09 7.9719e-10 10.2786 0.731801 0.0259123 -2.40025e-10 -2.48076e-09 7.97202e-10 2.22167 -0.733487 -0.20892 -1.78155e-14 9.26403e-14 -1.15056e-13 -44.4345 32.0819 20.4024 33.6423 -38.1589 -37.3272 0.0207116 8.68363 -1.21938 -1.06879e-09 -1.0109e-10 9.89629e-10 -1.83483e-09 -1.25879e-10 1.72321e-09 -1.06879e-09 -1.01085e-10 9.89637e-10 -7.73091 5.47488 -0.417314 -1.06879e-09 -1.01089e-10 9.89628e-10 -2.90554 0.965183 -0.102902 -1.06879e-09 -1.0109e-10 9.89627e-10 -10.2786 0.731801 -0.0259123 -1.06878e-09 -1.0109e-10 9.89614e-10 -2.22167 -0.733487 0.20892 -2.03217e-16 0.0 -3.88251e-19 4.78678 -0.0438631 1.42259 -0.0406643 20.0268 0.260073 1.72871 18.1183 -8.63803 2.03217e-16 0.0 3.88251e-19 0.601915 -25.4145 -4.96831 0.0475023 13.6225 -0.135338 -0.120031 13.2047 3.78952
-80.8531 83.6388 160.04 177.703 -2.8642 -168.937 -2.54678 -6.17957 10.1328 0.752979 4.51417 2.88508 -3.12574 -11.6179 -3.12746 9.47766 30.7708 -13.1376 -0.0 0.0 0.0 -0.0 0.0 0.0 -1.96495e-14 1.31052e-13 -1.60854e-13 62.1788 39.7546 -5.81335 -30.5826 -41.1365 63.0195 -0.0363054 6.14202 0.865721 -2.55576e-10 -3.40487e-09 1.10121e-09 -4.32884e-10 -5.87591e-09 1.90508e-09 -2.55574e-10 -3.40487e-09 1.10119e-09 7.73091 5.47488 0.417314 -2.55577e-10 -3.40487e-09 1.10121e-09 2.90554 0.965183 0.102902 -2.55573e-10 -3.40486e-09 1.10121e-09 10.2786 0.731801 0.0259123 -2.55585e-10 -3.40487e-09 1.10122e-09 2.22167 -0.733487 -0.20892 -1.96778e-14 1.31051e-13 -1.61063e-13 -74.6781 43.2843 35.5413 30.8152 -42.7776 -64.5906 0.156931 12.6702 -1.80312 -1.47093e-09 -1.53822e-10 1.41449e-09 -2.5247e-09 -1.95896e-10 2.46314e-09 -1.47094e-09 -1.53817e-10 1.41449e-09 -7.73091 5.47488 -0.417314 -1.47093e-09 -1.53821e-10 1.41448e-09 -2.90554 0.965183 -0.102902 -1.47093e-09 -1.53823e-10 1.41448e-09 -10.2786 0.731801 -0.0259123 -1.47092e-09 -1.53823e-10 1.41447e-09 -2.22167 -0.733487 0.20892 -2.03217e-16 0.0 -3.88251e-19 6.20265 2.68559 2.10871 -0.10354 26.906 0.372804 4.70035 25.7707 -13.4011 2.03217e-16 0.0 3.88251e-19 -1.04123 -35.9856 -8.05748 0.106339 20.8501 -0.239253 -0.818167 17.388 5.6777
-80.8022 83.5341 157.882 177.958 -2.7903 -169.159 -3.11066 -7.30192 12.1458 0.796363 5.52533 3.43997 -4.02579 -14.3361 -3.77656 13.7793 37.1887 -17.0778 -0.0 0.0 0.0 -0.0 0.0 0.0 -2.14451e-14 1.43125e-13 -1.6847e-13 77.4319 48.4316 -8.34281 -28.3927 -37.1551 78.9593 -0.0694614 7.49848 1.05996 -1.54031e-10 -3.2745e-09 1.09131e-09 -2.57236e-10 -5.64844e-09 1.88757e-09 -1.54029e-10 -3.27451e-09 1.09129e-09 7.73091 5.47488 0.417314 -1.54032e-10 -3.27451e-09 1.09131e-09 2.90554 0.965183 0.102902 -1.54029e-10 -3.2745e-09 1.09131e-09 10.2786 0.731801 0.0259123 -1.54039e-10 -3.27451e-09 1.09132e-09 2.22167 -0.733487 -0.20892 -2.14938e-14 1.43125e-13 -1.68669e-13 -100.374 48.0532 49.2726 28.2763 -38.5656 -81.388 0.303309 15.4822 -2.23099 -1.66325e-09 -2.13579e-10 1.6075e-09 -2.85504e-09 -2.89046e-10 2.79979e-09 -1.66326e-09 -2.13574e-10 1.60751e-09 -7.73091 5.47488 -0.417314 -1.66325e-09 -2.13578e-10 1.6075e-09 -2.90554 0.965183 -0.102902 -1.66325e-09 -2.1358e-10 1.6075e-09 -10.2786 0.731801 -0.0259123 -1.66324e-09 -2.1358e-10 1.60748e-09 -2.22167 -0.733487 0.20892 -2.03217e-16 0.0 -3.88251e-19 7.16656 4.36102 2.48241 -0.184956 32.6072 0.471086 7.66745 30.6693 -17.3956 2.03217e-16 0.0 3.88251e-19 -3.07583 -43.0766 -10.7084 0.166729 26.0013 -0.312731 -1.45857 20.2929 6.97413
-80.7788 83.3764 155.732 178.105 -2.7579 -169.35 -3.28861 -7.47059 12.5403 0.836321 5.98166 3.5417 -4.47484 -15.7106 -3.89973 15.5838 39.8741 -18.4504 -0.0 0.0 0.0 -0.0 0.0 0.0 -2.24616e-14 1.1266e-13 -1.06912e-13 83.7598 52.0111 -9.85431 -28.3236 -34.1875 83.3398 -0.0845999 8.00605 1.13314 1.78444e-10 -1.26397e-09 5.30504e-10 3.13571e-10 -2.17183e-09 9.16331e-10 1.78446e-10 -1.26398e-09 5.30488e-10 7.73091 5.47488 0.417314 1.78443e-10 -1.26397e-09 5.30504e-10 2.90554 0.965183 0.102902 1.78446e-10 -1.26396e-09 5.30503e-10 10.2786 0.731801 0.0259123 1.78436e-10 -1.26397e-09 5.30517e-10 2.22167 -0.733487 -0.20892 -2.25499e-14 1.1266e-13 -1.0708e-13 -111.033 48.7935 54.5608 28.2046 -35.6448 -86.3565 0.375279 16.6398 -2.41184 -1.53563e-09 -3.46009e-10 1.42219e-09 -2.63767e-09 -5.25206e-10 2.47886e-09 -1.53564e-09 -3.46007e-10 1.4222e-09 -7.73091 5.47488 -0.417314 -1.53563e-09 -3.4601e-10 1.42219e-09 -2.90554 0.965183 -0.102902 -1.53563e-09 -3.46011e-10 1.42219e-09 -10.2786 0.731801 -0.0259123 -1.53563e-09 -3.4601e-10 1.42218e-09 -2.22167 -0.733487 0.20892 -2.03217e-16 0.0 -3.88251e-19 7.61369 4.60324 2.47626 -0.26313 36.5966 0.529017 9.09721 32.1624 -19.4608 2.03217e-16 0.0 3.88251e-19 -3.96255 -45.5403 -11.5468 0.196216 28.1377 -0.326747 -1.69954 21.6313 7.23057
-80.7659 83.1122 153.587 178.219 -2.7515 -169.649 -3.22282 -6.96549 11.7728 0.884369 6.04165 3.31799 -4.56571 -16.1286 -3.63483 15.0126 40.0409 -17.5418 -0.0 0.0 0.0 -0.0 0.0 0.0 -2.2955e-14 5.20791e-14 3.32031e-15 83.077 52.0031 -10.0834 -28.321 -34.1277 82.0986 -0.0822408 7.90948 1.11926 6.7268e-10 2.07031e-09 -4.18495e-10 1.16116e-09 3.59234e-09 -7.26958e-10 6.72682e-10 2.0703e-09 -4.18505e-10 7.73091 5.47488 0.417314 6.72679e-10 2.07031e-09 -4.18496e-10 2.90554 0.965183 0.102902 6.72682e-10 2.07031e-09 -4.18495e-10 10.2786 0.731801 0.0259123 6.72671e-10 2.07031e-09 -4.18483e-10 2.22167 -0.733487 -0.20892 -2.30962e-14 5.20812e-14 3.19919e-15 -109.441 48.1756 52.7777 28.1829 -35.9937 -85.8528 0.371875 16.6176 -2.40798 -1.18073e-09 -5.27357e-10 9.69212e-10 -2.03119e-09 -8.58249e-10 1.69265e-09 -1.18074e-09 -5.27358e-10 9.69221e-10 -7.73091 5.47488 -0.417314 -1.18073e-09 -5.2736e-10 9.69216e-10 -2.90554 0.965183 -0.102902 -1.18074e-09 -5.27359e-10 9.69211e-10 -10.2786 0.731801 -0.0259123 -1.18073e-09 -5.27357e-10 9.69201e-10 -2.22167 -0.733487 0.20892 -2.03217e-16 0.0 -3.88251e-19 7.69468 3.82006 2.19467 -0.32891 39.3663 0.551922 9.00066 31.3647 -19.8821 2.03217e-16 0.0 3.88251e-19 -3.57389 -44.7559 -10.7095 0.196088 28.1258 -0.293967 -1.58005 21.853 6.71442
-80.7743 82.7545 151.452 178.254 -2.7844 -170.043 -3.0946 -6.11463 10.5192 0.941069 5.91587 2.95524 -4.49647 -16.1856 -3.2204 13.5126 39.1799 -15.7409 -0.0 0.0 0.0 -0.0 0.0 0.0 -2.43632e-14 -1.14827e-14 1.0834e-13 79.6155 50.4562 -9.81515 -28.3499 -35.0676 78.4852 -0.0741728 7.64087 1.08054 1.12445e-09 5.28782e-09 -1.34452e-09 1.93545e-09 9.15374e-09 -2.3303e-09 1.12445e-09 5.28782e-09 -1.34453e-09 7.73091 5.47488 0.417314 1.12445e-09 5.28782e-09 -1.34452e-09 2.90554 0.965183 0.102902 1.12445e-09 5.28783e-09 -1.34452e-09 10.2786 0.731801 0.0259123 1.12444e-09 5.28783e-09 -1.34451e-09 2.22167 -0.733487 -0.20892 -2.45511e-14 -1.14793e-14 1.08263e-13 -103.085 46.9416 48.2574 28.1885 -37.6265 -83.107 0.338428 16.1452 -2.33322 -7.76826e-10 -6.27727e-10 4.95145e-10 -1.34007e-09 -1.05305e-09 8.69144e-10 -7.76828e-10 -6.27731e-10 4.95152e-10 -7.73091 5.47488 -0.417314 -7.76824e-10 -6.27732e-10 4.9515e-10 -2.90554 0.965183 -0.102902 -7.76829e-10 -6.2773e-10 4.95144e-10 -10.2786 0.731801 -0.0259123 -7.76817e-10 -6.27726e-10 4.95135e-10 -2.22167 -0.733487 0.20892 -2.03217e-16 0.0 -3.88251e-19 7.54226 2.56261 1.70014 -0.390337 41.7489 0.567754 8.23901 29.6021 -19.6209 2.03217e-16 0.0 3.88251e-19 -2.83961 -42.5992 -9.26514 0.187848 27.4277 -0.24706 -1.33061 21.3395 6.03814
